<?xml version="1.0" encoding="utf-8"?>
<svg viewBox="-50 -147.272 600 794.545" width="600" height="794.545" xmlns="http://www.w3.org/2000/svg">
  <defs>
    <radialGradient gradientUnits="userSpaceOnUse" cx="472.37" cy="107.628" r="159.199" id="gradient-0" gradientTransform="matrix(-0.023894, 2.126572, -1.205235, -0.013542, 392.932808, -749.560463)">
      <stop offset="0" style="stop-color: rgb(255, 0, 102);"/>
      <stop offset="1" style="stop-color: rgb(5, 34, 67);"/>
    </radialGradient>
  </defs>
  <rect style="fill: rgb(216, 216, 216); stroke: rgba(0, 0, 0, 0);" x="-50" y="-147.272" width="600" height="794.545" rx="200" ry="200" transform="matrix(1, 0, 0, 1, 2.2737367544323206e-13, 1.1368683772161603e-13)"/>
  <path d="M 250.633 594.545 C 196.372 594.545 157.152 583.58 132.973 561.651 C 108.795 539.44 95.581 502.751 93.332 451.582 C 93.05 438.93 92.91 426.419 92.91 414.049 C 92.91 401.679 93.05 389.308 93.332 376.938 C 93.894 364.286 94.737 351.635 95.862 338.983 L 187.375 338.983 C 186.25 361.475 185.547 383.545 185.266 405.193 C 184.985 426.56 185.688 447.365 187.375 467.607 C 188.5 483.914 194.122 495.862 204.244 503.453 C 214.365 510.763 229.828 514.418 250.633 514.418 C 270.032 514.418 284.651 510.763 294.491 503.453 C 304.332 495.862 309.955 483.914 311.36 467.607 C 312.485 456.643 313.188 445.256 313.469 433.448 C 313.75 421.64 313.609 409.832 313.047 398.024 C 312.766 386.216 312.204 374.97 311.36 364.286 C 310.517 346.855 305.737 332.938 297.022 322.536 C 288.306 312.134 275.795 304.964 259.489 301.028 L 197.074 286.268 C 170.928 280.083 150.264 270.805 135.082 258.435 C 119.9 245.783 108.935 229.617 102.188 209.937 C 95.721 189.976 92.066 165.938 91.223 137.823 C 90.942 122.641 90.801 107.6 90.801 92.699 C 91.082 77.799 91.364 62.757 91.645 47.575 C 92.769 13.557 98.814 -13.855 109.779 -34.66 C 121.025 -55.465 138.034 -70.646 160.807 -80.205 C 183.861 -89.764 213.803 -94.544 250.633 -94.544 C 304.05 -94.544 342.708 -83.579 366.605 -61.65 C 390.503 -39.72 403.435 -3.171 405.403 47.997 C 405.966 62.898 406.106 79.907 405.825 99.025 C 405.544 118.143 404.982 137.12 404.138 155.957 L 310.939 155.957 C 311.782 133.465 312.344 112.098 312.625 91.856 C 312.907 71.613 312.625 51.652 311.782 31.972 C 311.22 15.665 305.878 3.857 295.757 -3.452 C 285.917 -10.762 270.735 -14.417 250.211 -14.417 C 230.25 -14.417 215.208 -10.762 205.087 -3.452 C 195.247 3.857 189.624 15.665 188.218 31.972 C 186.813 49.965 186.11 67.677 186.11 85.108 C 186.11 102.258 186.813 119.83 188.218 137.823 C 189.343 155.535 192.998 169.593 199.183 179.995 C 205.368 190.398 215.911 197.286 230.812 200.659 L 287.322 212.889 C 316.28 219.356 339.475 229.055 356.906 241.988 C 374.337 254.639 386.988 271.086 394.861 291.329 C 403.014 311.571 407.653 335.89 408.777 364.286 C 409.058 373.283 409.199 382.842 409.199 392.963 C 409.199 403.084 409.058 413.206 408.777 423.327 C 408.496 433.167 408.215 442.585 407.934 451.582 C 405.966 502.751 392.752 539.44 368.292 561.651 C 344.114 583.58 304.894 594.545 250.633 594.545 Z" style="filter: none; fill: url('#gradient-0');" transform="matrix(1, 0, 0, 1, 2.2737367544323206e-13, 1.1368683772161603e-13)"/>
</svg>